# xmcd CD database file
#
# Track frame offsets:
#	150
#	17637
#	35875
#	56419
#	69555
#	98157
#	128102
#	147533
#	173562
#
# Disc length: 2652 seconds
#
# Revision: 1
# Processed by: cddbd v1.5.1PL2 Copyright (c) Steve Scherf et al.
# Submitted via: CDex 1.50Beta7
#
DISCID=7c0a5a09
DTITLE=Kenny Drew and Niels-Henning Orsted Pedersen - Duo 2
DYEAR=1974
DGENRE=Jazz
TTITLE0=Jeg Gik Mig Over Sø Og Land
TTITLE1=Largo
TTITLE2=MY Little Suede Shoes
TTITLE3=Trubbel
TTITLE4=Bluesology
TTITLE5=Viking´s Blues
TTITLE6=A Child Is Born
TTITLE7=It Might As Well Be Spring
TTITLE8=My Shining Hour
EXTD=YEAR: 1974
EXTT0=
EXTT1=
EXTT2=
EXTT3=
EXTT4=
EXTT5=
EXTT6=
EXTT7=
EXTT8=
PLAYORDER=
